# xmcd
#
# Track frame offsets:
#	150
#	11192
#	24122
#	35812
#	45862
#	56860
#	73722
#	89725
#	99530
#	110000
#	120470
#	130007
#	144440
#	157057
#	168035
#	178860
#	189442
#	202675
#	214780
#	225117
#
# Disc length: 3175 seconds
#
# Revision: 1
# Processed by: cddbd v1.5.1PL0 Copyright (c) Steve Scherf et al.
# Submitted via: EasyCDDAExtractor 6.5.7.1
#
DISCID=0b0c6514
DTITLE=Various Artist - The Heart of Country cd1
DYEAR=1994
DGENRE=Country
TTITLE0=Billie Jo Spears - I'm so lonesome i could cry
TTITLE1=Freddie Hart - Somebody loves you
TTITLE2=Kenny Rogers - Me and Bobby Mcgee
TTITLE3=Kitty Wells - I can't stop loving you
TTITLE4=Don Gibson - Sea of heratbreak
TTITLE5=The Carter Family - Will the circle be unbroken
TTITLE6=Lynn  Anderson - You needed me
TTITLE7=Sonny James - Wonderin' 
TTITLE8=Dolly Parton - Release me
TTITLE9=Kenny Price - Walkin' on new grass
TTITLE10=Del Reeves - Good time Charlie's
TTITLE11=Freddie Hart - Playboy's centrefold
TTITLE12=Billie Jo Spears - Sunshine
TTITLE13=Ray Stevens - Cow cow boogie
TTITLE14=Ace Cannon - Help me make it through the night
TTITLE15=Joe South - Wings of a dove
TTITLE16=Freddie Fender - Silver wings
TTITLE17=Jeanne Pruett - Wild side of life
TTITLE18=Johnny Paycheck - Motel time again
TTITLE19=Ferlin Husky - Behind closed doors
EXTD=
EXTT0=
EXTT1=
EXTT2=
EXTT3=
EXTT4=
EXTT5=
EXTT6=
EXTT7=
EXTT8=
EXTT9=
EXTT10=
EXTT11=
EXTT12=
EXTT13=
EXTT14=
EXTT15=
EXTT16=
EXTT17=
EXTT18=
EXTT19=
PLAYORDER=
